# xmcd CD database file
#
# Track frame offsets:
#	150
#	8693
#	40245
#	69464
#	103394
#	132548
#	166135
#	195257
#	226803
#	251635
#	270036
#	300845
#
# Disc length: 4260 seconds
#
# Revision: 1
# Processed by: cddbd v1.5.1PL2 Copyright (c) Steve Scherf et al.
# Submitted via: CDex 1.51
#
DISCID=8d10a20c
DTITLE=Various Artist - Jazz Kitchen Four
DYEAR=2005
DGENRE=Jazz
TTITLE0=CHA LOVE
TTITLE1=MIND EXPANSIONS BLAZE SHELTER SUNDAE MIX
TTITLE2=WHENEVER
TTITLE3=LIVRE
TTITLE4=CHOCOLATE
TTITLE5=JOURNEY
TTITLE6=BRAZILIAN SKI
TTITLE7=WHITE BIG BANG REMIX
TTITLE8=YOU'RE NOT ALONE
TTITLE9=COTTON WOOL
TTITLE10=HIGH JAZZ NICOLA CONTE REMIX
TTITLE11=SANDY
EXTD=YEAR: 2005
EXTT0=
EXTT1=
EXTT2=
EXTT3=
EXTT4=
EXTT5=
EXTT6=
EXTT7=
EXTT8=
EXTT9=
EXTT10=
EXTT11=
PLAYORDER=
